<svg xmlns="http://www.w3.org/2000/svg" xmlns:xlink="http://www.w3.org/1999/xlink" width="2000" zoomAndPan="magnify" viewBox="0 0 1500 1499.999933" height="2000" preserveAspectRatio="xMidYMid meet" version="1.0"><defs><g/><clipPath id="8f1376f9c8"><rect x="0" width="546" y="0" height="415"/></clipPath><clipPath id="1ebb6c47f9"><rect x="0" width="596" y="0" height="324"/></clipPath></defs><g transform="matrix(1, 0, 0, 1, 769, 500)"><g clip-path="url(#8f1376f9c8)"><g fill="#000000" fill-opacity="1"><g transform="translate(1.040186, 336.471636)"><g><path d="M 14.71875 -149.734375 L 58.59375 -149.734375 L 58.59375 -126.515625 L 60.859375 -126.515625 C 61.609375 -128.972656 63.445312 -132.226562 66.375 -136.28125 C 69.300781 -140.34375 73.6875 -144.117188 79.53125 -147.609375 C 85.382812 -151.097656 92.554688 -152.84375 101.046875 -152.84375 C 110.484375 -152.84375 118.363281 -150.671875 124.6875 -146.328125 C 131.007812 -141.992188 135.675781 -137.421875 138.6875 -132.609375 C 141.707031 -127.796875 143.503906 -124.257812 144.078125 -122 L 146.046875 -122 C 148.691406 -128.40625 153.363281 -135.144531 160.0625 -142.21875 C 166.757812 -149.300781 177.375 -152.84375 191.90625 -152.84375 C 205.113281 -152.84375 215.488281 -149.398438 223.03125 -142.515625 C 230.582031 -135.628906 235.726562 -127.65625 238.46875 -118.59375 C 241.207031 -109.539062 242.578125 -101.050781 242.578125 -93.125 L 242.578125 0 L 198.703125 0 L 198.703125 -88.03125 C 198.703125 -96.894531 196.390625 -103.640625 191.765625 -108.265625 C 187.140625 -112.890625 181.523438 -115.203125 174.921875 -115.203125 C 168.316406 -115.203125 162.609375 -112.84375 157.796875 -108.125 C 152.984375 -103.40625 150.578125 -96.707031 150.578125 -88.03125 L 150.578125 0 L 106.703125 0 L 106.703125 -88.03125 C 106.703125 -96.894531 104.390625 -103.640625 99.765625 -108.265625 C 95.148438 -112.890625 89.539062 -115.203125 82.9375 -115.203125 C 76.332031 -115.203125 70.625 -112.84375 65.8125 -108.125 C 61 -103.40625 58.59375 -96.707031 58.59375 -88.03125 L 58.59375 0 L 14.71875 0 Z M 14.71875 -149.734375 "/></g></g></g><g fill="#000000" fill-opacity="1"><g transform="translate(235.40875, 336.471636)"><g><path d="M 82.65625 2.546875 C 66.800781 2.546875 53.445312 -0.941406 42.59375 -7.921875 C 31.75 -14.898438 23.679688 -24.238281 18.390625 -35.9375 C 13.109375 -47.644531 10.46875 -60.664062 10.46875 -75 C 10.46875 -89.15625 13.109375 -102.128906 18.390625 -113.921875 C 23.679688 -125.710938 31.75 -135.144531 42.59375 -142.21875 C 53.445312 -149.300781 66.800781 -152.84375 82.65625 -152.84375 C 98.5 -152.84375 111.84375 -149.351562 122.6875 -142.375 C 133.539062 -135.394531 141.609375 -126.003906 146.890625 -114.203125 C 152.179688 -102.410156 154.828125 -89.441406 154.828125 -75.296875 C 154.828125 -61.140625 152.179688 -48.164062 146.890625 -36.375 C 141.609375 -24.582031 133.539062 -15.144531 122.6875 -8.0625 C 111.84375 -0.988281 98.5 2.546875 82.65625 2.546875 Z M 82.65625 -32.828125 C 92.46875 -32.828125 99.726562 -36.882812 104.4375 -45 C 109.15625 -53.113281 111.515625 -63.304688 111.515625 -75.578125 C 111.515625 -87.835938 109.15625 -97.882812 104.4375 -105.71875 C 99.726562 -113.550781 92.46875 -117.46875 82.65625 -117.46875 C 72.84375 -117.46875 65.578125 -113.503906 60.859375 -105.578125 C 56.140625 -97.648438 53.78125 -87.648438 53.78125 -75.578125 C 53.78125 -63.304688 56.1875 -53.113281 61 -45 C 65.8125 -36.882812 73.03125 -32.828125 82.65625 -32.828125 Z M 82.65625 -32.828125 "/></g></g></g><g fill="#000000" fill-opacity="1"><g transform="translate(378.067861, 336.471636)"><g><path d="M 70.484375 2.546875 C 51.984375 2.546875 37.6875 -4.476562 27.59375 -18.53125 C 17.5 -32.59375 12.453125 -51.414062 12.453125 -75 C 12.453125 -98.96875 17.5 -117.929688 27.59375 -131.890625 C 37.6875 -145.859375 52.078125 -152.84375 70.765625 -152.84375 C 83.398438 -152.84375 93.160156 -150.054688 100.046875 -144.484375 C 106.941406 -138.921875 111.707031 -133.3125 114.34375 -127.65625 L 116.609375 -127.65625 L 116.609375 -149.734375 L 161.046875 -149.734375 L 161.046875 59.15625 L 116.609375 59.15625 L 116.609375 -24.0625 L 114.34375 -24.0625 C 111.144531 -17.644531 106.144531 -11.601562 99.34375 -5.9375 C 92.550781 -0.28125 82.929688 2.546875 70.484375 2.546875 Z M 86.890625 -32.265625 C 96.890625 -32.265625 104.34375 -36.507812 109.25 -45 C 114.15625 -53.488281 116.609375 -63.488281 116.609375 -75 C 116.609375 -86.320312 114.203125 -96.132812 109.390625 -104.4375 C 104.585938 -112.738281 97.085938 -116.890625 86.890625 -116.890625 C 76.703125 -116.890625 69.203125 -112.785156 64.390625 -104.578125 C 59.578125 -96.367188 57.171875 -86.507812 57.171875 -75 C 57.171875 -63.488281 59.578125 -53.488281 64.390625 -45 C 69.203125 -36.507812 76.703125 -32.265625 86.890625 -32.265625 Z M 86.890625 -32.265625 "/></g></g></g></g></g><g transform="matrix(1, 0, 0, 1, 180, 600)"><g clip-path="url(#1ebb6c47f9)"><g fill="#000000" fill-opacity="1"><g transform="translate(3.965311, 231.140852)"><g><path d="M 87.25 -182.1875 L 93.34375 -182.1875 L 82.109375 -143.0625 L 104.5625 -143.0625 L 102 -133.125 L 79.234375 -133.125 L 50.6875 -33.359375 C 48.113281 -24.804688 46.828125 -19.03125 46.828125 -16.03125 C 46.828125 -12.1875 48.429688 -10.265625 51.640625 -10.265625 C 54.421875 -10.265625 57.84375 -11.8125 61.90625 -14.90625 C 65.96875 -18.007812 69.765625 -21.484375 73.296875 -25.328125 C 76.828125 -29.179688 78.695312 -31.535156 78.90625 -32.390625 L 85 -32.390625 C 76.664062 -19.140625 68.328125 -9.785156 59.984375 -4.328125 C 51.640625 1.117188 44.046875 3.84375 37.203125 3.84375 C 33.566406 3.84375 30.253906 2.457031 27.265625 -0.3125 C 24.273438 -3.09375 22.78125 -7.375 22.78125 -13.15625 C 22.78125 -17 24.0625 -23.734375 26.625 -33.359375 L 55.171875 -133.125 L 31.109375 -133.125 L 33.359375 -140.171875 C 45.972656 -142.304688 56.289062 -147.171875 64.3125 -154.765625 C 72.332031 -162.359375 79.976562 -171.5 87.25 -182.1875 Z M 87.25 -182.1875 "/></g></g></g><g fill="#000000" fill-opacity="1"><g transform="translate(88.322047, 231.140852)"><g><path d="M 68 -146.59375 L 48.4375 -63.515625 C 52.28125 -72.921875 57.785156 -84.144531 64.953125 -97.1875 C 72.117188 -110.238281 79.765625 -121.734375 87.890625 -131.671875 C 96.015625 -141.617188 103.390625 -146.59375 110.015625 -146.59375 C 112.796875 -146.59375 115.253906 -145.628906 117.390625 -143.703125 C 119.535156 -141.773438 120.609375 -138.890625 120.609375 -135.046875 C 120.609375 -129.054688 119.378906 -122.957031 116.921875 -116.75 C 114.460938 -110.550781 110.34375 -107.453125 104.5625 -107.453125 C 101.570312 -107.453125 99.539062 -108.203125 98.46875 -109.703125 C 97.40625 -111.203125 96.550781 -113.445312 95.90625 -116.4375 C 95.476562 -118.570312 94.992188 -120.117188 94.453125 -121.078125 C 93.921875 -122.046875 92.910156 -122.53125 91.421875 -122.53125 C 87.785156 -122.53125 82.648438 -116.753906 76.015625 -105.203125 C 69.390625 -93.660156 62.867188 -80.40625 56.453125 -65.4375 C 50.035156 -50.46875 45.757812 -39.238281 43.625 -31.75 L 34.640625 0 L 10.90625 0 L 36.25 -103.609375 C 36.457031 -104.242188 37.097656 -106.859375 38.171875 -111.453125 C 39.242188 -116.054688 39.78125 -120.175781 39.78125 -123.8125 C 39.78125 -127.238281 38.816406 -129.484375 36.890625 -130.546875 C 34.960938 -131.617188 32.394531 -132.15625 29.1875 -132.15625 C 26.832031 -132.15625 24.742188 -132.046875 22.921875 -131.828125 C 21.109375 -131.617188 19.671875 -131.40625 18.609375 -131.1875 L 20.203125 -137.28125 L 62.546875 -146.59375 Z M 68 -146.59375 "/></g></g></g><g fill="#000000" fill-opacity="1"><g transform="translate(180.055852, 231.140852)"><g><path d="M 99.765625 -146.59375 C 105.535156 -146.59375 110.769531 -144.613281 115.46875 -140.65625 C 120.175781 -136.695312 123.066406 -131.191406 124.140625 -124.140625 L 124.78125 -124.140625 L 129.90625 -143.0625 L 155.25 -146.59375 L 122.21875 -30.796875 C 122 -30.367188 121.460938 -28.765625 120.609375 -25.984375 C 119.753906 -23.203125 119.328125 -20.421875 119.328125 -17.640625 C 119.328125 -15.929688 119.753906 -14.59375 120.609375 -13.625 C 121.460938 -12.664062 122.425781 -12.1875 123.5 -12.1875 C 126.28125 -12.1875 129.804688 -14.109375 134.078125 -17.953125 C 138.359375 -21.804688 142.421875 -27.15625 146.265625 -34 L 151.078125 -30.796875 C 145.304688 -20.097656 137.984375 -11.648438 129.109375 -5.453125 C 120.234375 0.742188 112.375 3.84375 105.53125 3.84375 C 101.6875 3.84375 98.800781 2.457031 96.875 -0.3125 C 94.945312 -3.09375 93.984375 -6.515625 93.984375 -10.578125 C 93.984375 -13.359375 94.570312 -17.90625 95.75 -24.21875 C 96.925781 -30.53125 98.796875 -36.890625 101.359375 -43.296875 L 100.71875 -43.9375 C 76.769531 -12.082031 55.066406 3.84375 35.609375 3.84375 C 27.054688 3.84375 20.265625 0.15625 15.234375 -7.21875 C 10.210938 -14.59375 7.703125 -23.09375 7.703125 -32.71875 C 7.703125 -49.394531 12.566406 -66.660156 22.296875 -84.515625 C 32.023438 -102.378906 44.101562 -117.191406 58.53125 -128.953125 C 72.96875 -140.710938 86.710938 -146.59375 99.765625 -146.59375 Z M 33.359375 -38.8125 C 33.359375 -30.46875 35.28125 -24.367188 39.125 -20.515625 C 42.976562 -16.671875 47.472656 -14.75 52.609375 -14.75 C 59.234375 -14.75 66.394531 -17.742188 74.09375 -23.734375 C 81.789062 -29.722656 88.898438 -37.367188 95.421875 -46.671875 C 101.953125 -55.972656 106.816406 -65.4375 110.015625 -75.0625 C 113.222656 -84.46875 115.578125 -92.21875 117.078125 -98.3125 C 118.578125 -104.40625 119.328125 -110.34375 119.328125 -116.125 C 119.328125 -124.457031 117.398438 -130.601562 113.546875 -134.5625 C 109.703125 -138.519531 105.210938 -140.5 100.078125 -140.5 C 90.023438 -140.5 79.8125 -134.347656 69.4375 -122.046875 C 59.070312 -109.753906 50.46875 -95.375 43.625 -78.90625 C 36.78125 -62.4375 33.359375 -49.070312 33.359375 -38.8125 Z M 33.359375 -38.8125 "/></g></g></g><g fill="#000000" fill-opacity="1"><g transform="translate(317.979165, 231.140852)"><g><path d="M 123.8125 -30.15625 C 121.882812 -23.09375 120.921875 -18.382812 120.921875 -16.03125 C 120.921875 -14.75 121.296875 -13.679688 122.046875 -12.828125 C 122.796875 -11.972656 123.707031 -11.546875 124.78125 -11.546875 C 127.34375 -11.546875 131.082031 -13.738281 136 -18.125 C 140.914062 -22.507812 145.515625 -27.910156 149.796875 -34.328125 L 154.28125 -30.15625 C 147.65625 -20.53125 139.957031 -12.457031 131.1875 -5.9375 C 122.425781 0.582031 115.15625 3.84375 109.375 3.84375 C 105.3125 3.84375 102.101562 2.347656 99.75 -0.640625 C 97.40625 -3.628906 96.234375 -7.050781 96.234375 -10.90625 C 96.234375 -14.320312 96.660156 -18.007812 97.515625 -21.96875 C 98.367188 -25.925781 99.117188 -28.65625 99.765625 -30.15625 L 107.140625 -55.171875 L 106.5 -55.8125 C 96.226562 -40.625 85 -26.882812 72.8125 -14.59375 C 60.625 -2.300781 48.96875 3.84375 37.84375 3.84375 C 28.863281 3.84375 21.859375 -0.320312 16.828125 -8.65625 C 11.804688 -17 9.296875 -26.195312 9.296875 -36.25 C 9.296875 -52.5 14.269531 -69.285156 24.21875 -86.609375 C 34.164062 -103.929688 46.566406 -118.257812 61.421875 -129.59375 C 76.285156 -140.925781 90.5625 -146.59375 104.25 -146.59375 C 114.082031 -146.59375 122.421875 -142.101562 129.265625 -133.125 L 146.90625 -194.703125 C 148.832031 -201.546875 149.796875 -206.460938 149.796875 -209.453125 C 149.796875 -212.660156 148.507812 -214.691406 145.9375 -215.546875 C 143.375 -216.410156 139.957031 -216.84375 135.6875 -216.84375 L 126.703125 -216.515625 L 126.375 -221.328125 L 175.140625 -229.984375 L 180.90625 -229.984375 Z M 62.546875 -110.34375 C 54.847656 -99.4375 48.539062 -87.40625 43.625 -74.25 C 38.707031 -61.101562 36.25 -49.078125 36.25 -38.171875 C 36.25 -30.046875 37.691406 -24.054688 40.578125 -20.203125 C 43.460938 -16.359375 47.363281 -14.4375 52.28125 -14.4375 C 60.40625 -14.4375 70.023438 -20.421875 81.140625 -32.390625 C 92.265625 -44.367188 101.890625 -58.644531 110.015625 -75.21875 C 118.148438 -91.789062 122.21875 -106.382812 122.21875 -119 C 122.21875 -126.269531 120.128906 -131.671875 115.953125 -135.203125 C 111.785156 -138.734375 107.457031 -140.5 102.96875 -140.5 C 96.757812 -140.5 90.070312 -137.769531 82.90625 -132.3125 C 75.75 -126.863281 68.960938 -119.539062 62.546875 -110.34375 Z M 62.546875 -110.34375 "/></g></g></g><g fill="#000000" fill-opacity="1"><g transform="translate(455.902478, 231.140852)"><g><path d="M 103.921875 -146.59375 C 112.910156 -146.59375 120.453125 -144.347656 126.546875 -139.859375 C 132.640625 -135.367188 135.6875 -129.59375 135.6875 -122.53125 C 135.6875 -115.6875 132.476562 -107.878906 126.0625 -99.109375 C 119.644531 -90.347656 109.21875 -82.597656 94.78125 -75.859375 C 80.351562 -69.117188 62.019531 -65.429688 39.78125 -64.796875 C 38.488281 -60.515625 37.84375 -55.273438 37.84375 -49.078125 C 37.84375 -36.035156 41.367188 -26.570312 48.421875 -20.6875 C 55.484375 -14.8125 63.289062 -11.875 71.84375 -11.875 C 86.175781 -11.875 100.71875 -19.035156 115.46875 -33.359375 L 119.640625 -29.515625 C 96.765625 -7.273438 74.632812 3.84375 53.25 3.84375 C 44.476562 3.84375 36.832031 1.65625 30.3125 -2.71875 C 23.789062 -7.101562 18.867188 -12.820312 15.546875 -19.875 C 12.234375 -26.9375 10.578125 -34.210938 10.578125 -41.703125 C 10.578125 -56.671875 14.90625 -72.382812 23.5625 -88.84375 C 32.226562 -105.3125 43.78125 -119.050781 58.21875 -130.0625 C 72.65625 -141.082031 87.890625 -146.59375 103.921875 -146.59375 Z M 41.703125 -70.890625 C 56.242188 -71.960938 68.003906 -74.421875 76.984375 -78.265625 C 85.753906 -82.117188 92.863281 -87.09375 98.3125 -93.1875 C 103.769531 -99.28125 107.671875 -105.265625 110.015625 -111.140625 C 112.367188 -117.023438 113.546875 -121.890625 113.546875 -125.734375 C 113.546875 -129.367188 112.207031 -132.738281 109.53125 -135.84375 C 106.863281 -138.945312 103.070312 -140.5 98.15625 -140.5 C 89.601562 -140.5 81.316406 -136.539062 73.296875 -128.625 C 65.273438 -120.71875 58.429688 -111.3125 52.765625 -100.40625 C 47.097656 -89.5 43.410156 -79.660156 41.703125 -70.890625 Z M 41.703125 -70.890625 "/></g></g></g></g></g></svg>
