<svg xmlns="http://www.w3.org/2000/svg" xmlns:xlink="http://www.w3.org/1999/xlink" width="500" zoomAndPan="magnify" viewBox="0 0 375 374.999991" height="500" preserveAspectRatio="xMidYMid meet" version="1.0"><defs><g/></defs><g fill="#f6f4f0" fill-opacity="1"><g transform="translate(43.154095, 181.175643)"><g><path d="M 10.5625 -47.609375 C 9.53125 -47.609375 8.410156 -47.515625 7.203125 -47.328125 C 5.992188 -47.148438 4.835938 -46.941406 3.734375 -46.703125 C 2.640625 -46.472656 1.742188 -46.265625 1.046875 -46.078125 C 0.347656 -45.890625 0 -45.796875 0 -45.796875 L 0 -48.953125 L 40.0625 -48.953125 L 40.0625 -45.796875 C 40.0625 -45.796875 39.710938 -45.890625 39.015625 -46.078125 C 38.316406 -46.265625 37.421875 -46.472656 36.328125 -46.703125 C 35.234375 -46.941406 34.078125 -47.148438 32.859375 -47.328125 C 31.648438 -47.515625 30.53125 -47.609375 29.5 -47.609375 L 23.640625 -47.609375 L 23.640625 -7.6875 C 23.640625 -5.632812 23.753906 -3.835938 23.984375 -2.296875 C 24.210938 -0.765625 24.328125 0 24.328125 0 L 15.796875 0 C 15.796875 0 15.898438 -0.765625 16.109375 -2.296875 C 16.328125 -3.835938 16.4375 -5.632812 16.4375 -7.6875 L 16.4375 -47.609375 Z M 10.5625 -47.609375 "/></g></g></g><g fill="#f6f4f0" fill-opacity="1"><g transform="translate(83.843205, 181.175643)"><g><path d="M 25.875 -24.046875 C 24.238281 -26.242188 22.28125 -27.609375 20 -28.140625 C 17.71875 -28.679688 15.335938 -28.4375 12.859375 -27.40625 C 11.742188 -26.9375 10.671875 -26.445312 9.640625 -25.9375 C 8.617188 -25.425781 7.664062 -24.9375 6.78125 -24.46875 L 6.78125 -7.6875 C 6.78125 -5.632812 6.894531 -3.835938 7.125 -2.296875 C 7.363281 -0.765625 7.484375 0 7.484375 0 L 0 0 C 0 0 0.113281 -0.765625 0.34375 -2.296875 C 0.582031 -3.835938 0.703125 -5.632812 0.703125 -7.6875 L 0.703125 -22.859375 C 0.703125 -24.960938 0.582031 -26.78125 0.34375 -28.3125 C 0.113281 -29.851562 0 -30.625 0 -30.625 L 6.78125 -30.625 L 6.78125 -25.515625 C 7.664062 -25.984375 8.75 -26.519531 10.03125 -27.125 C 11.3125 -27.726562 12.648438 -28.3125 14.046875 -28.875 C 15.453125 -29.4375 16.816406 -29.890625 18.140625 -30.234375 C 19.472656 -30.585938 20.628906 -30.71875 21.609375 -30.625 C 22.585938 -30.53125 23.503906 -30.273438 24.359375 -29.859375 C 25.222656 -29.441406 26.3125 -28.671875 27.625 -27.546875 Z M 25.875 -24.046875 "/></g></g></g><g fill="#f6f4f0" fill-opacity="1"><g transform="translate(111.178721, 181.175643)"><g><path d="M 22.375 -5.390625 C 20.226562 -3.660156 18.140625 -2.328125 16.109375 -1.390625 C 14.085938 -0.460938 11.890625 0 9.515625 0 C 8.066406 0 6.609375 -0.253906 5.140625 -0.765625 C 3.671875 -1.273438 2.445312 -2.066406 1.46875 -3.140625 C 0.488281 -4.210938 0 -5.585938 0 -7.265625 C -0.0390625 -8.992188 0.410156 -10.488281 1.359375 -11.75 C 2.316406 -13.007812 3.519531 -14.007812 4.96875 -14.75 C 6.738281 -15.632812 8.632812 -16.125 10.65625 -16.21875 C 12.6875 -16.3125 14.679688 -16.476562 16.640625 -16.71875 C 17.847656 -16.894531 19.035156 -17.238281 20.203125 -17.75 C 21.367188 -18.269531 22.300781 -19.003906 23 -19.953125 C 23.695312 -20.910156 23.957031 -22.09375 23.78125 -23.5 C 23.59375 -25.40625 22.820312 -26.835938 21.46875 -27.796875 C 20.113281 -28.753906 18.570312 -29.320312 16.84375 -29.5 C 14.007812 -29.832031 11.351562 -29.445312 8.875 -28.34375 C 6.40625 -27.25 4.003906 -25.816406 1.671875 -24.046875 L 0 -27.40625 C 2.050781 -28.34375 4.453125 -29.113281 7.203125 -29.71875 C 9.953125 -30.320312 12.816406 -30.625 15.796875 -30.625 C 17.054688 -30.625 18.488281 -30.539062 20.09375 -30.375 C 21.707031 -30.21875 23.257812 -29.878906 24.75 -29.359375 C 26.238281 -28.847656 27.472656 -28.066406 28.453125 -27.015625 C 29.429688 -25.972656 29.921875 -24.539062 29.921875 -22.71875 C 29.921875 -21.039062 29.40625 -19.757812 28.375 -18.875 C 27.351562 -17.988281 26.097656 -17.367188 24.609375 -17.015625 C 23.117188 -16.671875 21.648438 -16.429688 20.203125 -16.296875 C 18.765625 -16.148438 17.238281 -15.925781 15.625 -15.625 C 14.019531 -15.320312 12.492188 -14.851562 11.046875 -14.21875 C 9.597656 -13.59375 8.421875 -12.734375 7.515625 -11.640625 C 6.609375 -10.546875 6.15625 -9.113281 6.15625 -7.34375 C 6.15625 -5.757812 6.644531 -4.554688 7.625 -3.734375 C 8.601562 -2.921875 9.800781 -2.429688 11.21875 -2.265625 C 12.644531 -2.109375 14.007812 -2.191406 15.3125 -2.515625 C 17.175781 -3.023438 18.875 -3.835938 20.40625 -4.953125 C 21.945312 -6.078125 23.320312 -7.289062 24.53125 -8.59375 C 25.75 -9.90625 26.753906 -11.070312 27.546875 -12.09375 L 28.453125 -5.875 C 28.597656 -4.9375 28.785156 -3.910156 29.015625 -2.796875 C 29.253906 -1.679688 29.535156 -0.75 29.859375 0 L 23.140625 0 Z M 22.375 -5.390625 "/></g></g></g><g fill="#f6f4f0" fill-opacity="1"><g transform="translate(141.660367, 181.175643)"><g><path d="M 23.78125 -48.953125 L 31.25 -48.953125 C 31.25 -48.953125 31.144531 -48.179688 30.9375 -46.640625 C 30.726562 -45.097656 30.625 -43.300781 30.625 -41.25 L 30.625 -7.6875 C 30.625 -5.632812 30.726562 -3.835938 30.9375 -2.296875 C 31.144531 -0.765625 31.25 0 31.25 0 L 24.46875 0 L 24.46875 -19.15625 C 24.007812 -21.207031 23.226562 -23.015625 22.125 -24.578125 C 21.03125 -26.140625 19.785156 -27.375 18.390625 -28.28125 C 16.992188 -29.1875 15.59375 -29.640625 14.1875 -29.640625 C 12.320312 -29.691406 10.796875 -29.0625 9.609375 -27.75 C 8.421875 -26.445312 7.535156 -24.75 6.953125 -22.65625 C 6.367188 -20.5625 6.078125 -18.320312 6.078125 -15.9375 C 6.078125 -13.46875 6.40625 -11.09375 7.0625 -8.8125 C 7.71875 -6.53125 8.671875 -4.65625 9.921875 -3.1875 C 11.179688 -1.71875 12.742188 -0.984375 14.609375 -0.984375 C 15.921875 -0.984375 17.03125 -1.4375 17.9375 -2.34375 C 18.84375 -3.25 19.5625 -4.316406 20.09375 -5.546875 C 20.632812 -6.785156 20.953125 -7.921875 21.046875 -8.953125 L 22.65625 -5.453125 C 21.445312 -3.492188 20.023438 -2.09375 18.390625 -1.25 C 16.753906 -0.414062 15.078125 0 13.359375 0 C 10.929688 0 8.703125 -0.695312 6.671875 -2.09375 C 4.648438 -3.5 3.03125 -5.363281 1.8125 -7.6875 C 0.601562 -10.019531 0 -12.585938 0 -15.390625 C 0 -18.222656 0.507812 -20.78125 1.53125 -23.0625 C 2.5625 -25.351562 4.03125 -27.1875 5.9375 -28.5625 C 7.851562 -29.9375 10.160156 -30.625 12.859375 -30.625 C 15.191406 -30.625 17.367188 -30.078125 19.390625 -28.984375 C 21.421875 -27.890625 23.113281 -26.109375 24.46875 -23.640625 L 24.46875 -41.25 C 24.46875 -43.300781 24.351562 -45.097656 24.125 -46.640625 C 23.894531 -48.179688 23.78125 -48.953125 23.78125 -48.953125 Z M 23.78125 -48.953125 "/></g></g></g><g fill="#f6f4f0" fill-opacity="1"><g transform="translate(173.819957, 181.175643)"><g><path d="M 29.71875 -12.234375 L 30.625 -12.234375 C 30.15625 -9.898438 29.175781 -7.8125 27.6875 -5.96875 C 26.195312 -4.132812 24.378906 -2.679688 22.234375 -1.609375 C 20.085938 -0.535156 17.78125 0 15.3125 0 C 12.519531 0 9.96875 -0.6875 7.65625 -2.0625 C 5.351562 -3.4375 3.5 -5.273438 2.09375 -7.578125 C 0.695312 -9.890625 0 -12.46875 0 -15.3125 C 0 -18.15625 0.6875 -20.726562 2.0625 -23.03125 C 3.4375 -25.34375 5.289062 -27.1875 7.625 -28.5625 C 9.957031 -29.9375 12.519531 -30.625 15.3125 -30.625 C 17.226562 -30.625 19.023438 -30.296875 20.703125 -29.640625 C 22.378906 -28.992188 23.867188 -28.109375 25.171875 -26.984375 C 26.242188 -26.097656 27.148438 -25.035156 27.890625 -23.796875 C 28.640625 -22.566406 29.0625 -21.253906 29.15625 -19.859375 C 29.382812 -17.617188 28.960938 -15.800781 27.890625 -14.40625 C 26.828125 -13.007812 25.382812 -12.050781 23.5625 -11.53125 C 21.75 -11.019531 19.863281 -10.925781 17.90625 -11.25 C 15.613281 -11.625 13.460938 -12.535156 11.453125 -13.984375 C 9.453125 -15.429688 7.753906 -17.109375 6.359375 -19.015625 C 5.941406 -19.617188 5.566406 -20.234375 5.234375 -20.859375 C 4.910156 -21.492188 4.632812 -22.160156 4.40625 -22.859375 C 3.988281 -21.046875 4.054688 -19.019531 4.609375 -16.78125 C 5.171875 -14.539062 6.175781 -12.328125 7.625 -10.140625 C 8.644531 -8.597656 9.910156 -7.28125 11.421875 -6.1875 C 12.941406 -5.09375 14.578125 -4.332031 16.328125 -3.90625 C 18.078125 -3.488281 19.8125 -3.46875 21.53125 -3.84375 C 23.539062 -4.257812 25.3125 -5.257812 26.84375 -6.84375 C 28.382812 -8.4375 29.34375 -10.234375 29.71875 -12.234375 Z M 7.203125 -27.34375 C 6.265625 -26.6875 5.492188 -25.753906 4.890625 -24.546875 C 5.398438 -22.535156 6.210938 -20.816406 7.328125 -19.390625 C 8.453125 -17.972656 9.804688 -16.820312 11.390625 -15.9375 C 13.492188 -14.769531 15.375 -14.160156 17.03125 -14.109375 C 18.6875 -14.066406 20.035156 -14.441406 21.078125 -15.234375 C 22.128906 -16.035156 22.816406 -17.0625 23.140625 -18.3125 C 23.472656 -19.570312 23.359375 -20.925781 22.796875 -22.375 C 22.234375 -23.820312 21.140625 -25.175781 19.515625 -26.4375 C 18.203125 -27.457031 16.785156 -28.140625 15.265625 -28.484375 C 13.753906 -28.835938 12.285156 -28.910156 10.859375 -28.703125 C 9.441406 -28.492188 8.222656 -28.039062 7.203125 -27.34375 Z M 7.203125 -27.34375 "/></g></g></g><g fill="#f6f4f0" fill-opacity="1"><g transform="translate(205.070657, 181.175643)"><g><path d="M 10.703125 -47.0625 L 4.125 -12.71875 C 3.707031 -10.625 3.554688 -8.609375 3.671875 -6.671875 C 3.785156 -4.742188 3.96875 -3.148438 4.21875 -1.890625 C 4.476562 -0.628906 4.609375 0 4.609375 0 L 0 0 C 0 0 0.265625 -0.765625 0.796875 -2.296875 C 1.335938 -3.835938 1.796875 -5.632812 2.171875 -7.6875 L 10.140625 -48.953125 L 17.34375 -48.953125 L 28.53125 -13.078125 L 39.71875 -48.953125 L 46.921875 -48.953125 L 54.671875 -8.8125 C 54.953125 -7.320312 55.265625 -5.84375 55.609375 -4.375 C 55.960938 -2.90625 56.421875 -1.445312 56.984375 0 L 48.390625 0 C 48.578125 -0.9375 48.597656 -1.9375 48.453125 -3 C 48.316406 -4.070312 48.128906 -5.265625 47.890625 -6.578125 L 40.0625 -46.984375 L 25.796875 -1.1875 L 25.03125 -1.1875 Z M 10.703125 -47.0625 "/></g></g></g><g fill="#f6f4f0" fill-opacity="1"><g transform="translate(262.888723, 181.175643)"><g><path d="M 15.3125 -30.625 C 18.15625 -30.625 20.726562 -29.9375 23.03125 -28.5625 C 25.34375 -27.1875 27.1875 -25.34375 28.5625 -23.03125 C 29.9375 -20.726562 30.625 -18.15625 30.625 -15.3125 C 30.625 -12.519531 29.9375 -9.957031 28.5625 -7.625 C 27.1875 -5.289062 25.34375 -3.4375 23.03125 -2.0625 C 20.726562 -0.6875 18.15625 0 15.3125 0 C 12.519531 0 9.957031 -0.6875 7.625 -2.0625 C 5.289062 -3.4375 3.4375 -5.289062 2.0625 -7.625 C 0.6875 -9.957031 0 -12.519531 0 -15.3125 C 0 -18.15625 0.6875 -20.726562 2.0625 -23.03125 C 3.4375 -25.34375 5.289062 -27.1875 7.625 -28.5625 C 9.957031 -29.9375 12.519531 -30.625 15.3125 -30.625 Z M 23.421875 -3.28125 C 24.816406 -4.257812 25.734375 -5.679688 26.171875 -7.546875 C 26.617188 -9.410156 26.570312 -11.472656 26.03125 -13.734375 C 25.5 -15.992188 24.488281 -18.242188 23 -20.484375 C 21.507812 -22.722656 19.804688 -24.519531 17.890625 -25.875 C 15.984375 -27.226562 14.085938 -28.054688 12.203125 -28.359375 C 10.316406 -28.660156 8.648438 -28.320312 7.203125 -27.34375 C 5.804688 -26.40625 4.882812 -25.003906 4.4375 -23.140625 C 4 -21.273438 4.046875 -19.203125 4.578125 -16.921875 C 5.117188 -14.640625 6.132812 -12.378906 7.625 -10.140625 C 9.113281 -7.953125 10.8125 -6.171875 12.71875 -4.796875 C 14.632812 -3.421875 16.546875 -2.59375 18.453125 -2.3125 C 20.367188 -2.03125 22.023438 -2.351562 23.421875 -3.28125 Z M 23.421875 -3.28125 "/></g></g></g><g fill="#f6f4f0" fill-opacity="1"><g transform="translate(294.209346, 181.175643)"><g><path d="M 23.78125 18.3125 C 23.78125 18.3125 23.894531 17.539062 24.125 16 C 24.351562 14.46875 24.46875 12.675781 24.46875 10.625 L 24.46875 -19.15625 C 24.007812 -21.257812 23.226562 -23.085938 22.125 -24.640625 C 21.03125 -26.203125 19.785156 -27.425781 18.390625 -28.3125 C 16.992188 -29.195312 15.59375 -29.640625 14.1875 -29.640625 C 12.320312 -29.691406 10.796875 -29.0625 9.609375 -27.75 C 8.421875 -26.445312 7.535156 -24.75 6.953125 -22.65625 C 6.367188 -20.5625 6.078125 -18.320312 6.078125 -15.9375 C 6.078125 -13.519531 6.40625 -11.15625 7.0625 -8.84375 C 7.71875 -6.539062 8.671875 -4.65625 9.921875 -3.1875 C 11.179688 -1.71875 12.742188 -0.984375 14.609375 -0.984375 C 15.921875 -0.984375 17.03125 -1.4375 17.9375 -2.34375 C 18.84375 -3.25 19.5625 -4.316406 20.09375 -5.546875 C 20.632812 -6.785156 20.953125 -7.921875 21.046875 -8.953125 L 22.65625 -5.453125 C 21.445312 -3.546875 20.023438 -2.160156 18.390625 -1.296875 C 16.753906 -0.429688 15.078125 0 13.359375 0 C 10.929688 0 8.703125 -0.695312 6.671875 -2.09375 C 4.648438 -3.5 3.03125 -5.363281 1.8125 -7.6875 C 0.601562 -10.019531 0 -12.585938 0 -15.390625 C 0 -18.222656 0.507812 -20.78125 1.53125 -23.0625 C 2.5625 -25.351562 4.03125 -27.1875 5.9375 -28.5625 C 7.851562 -29.9375 10.160156 -30.625 12.859375 -30.625 C 15.191406 -30.625 17.367188 -30.085938 19.390625 -29.015625 C 21.421875 -27.941406 23.113281 -26.148438 24.46875 -23.640625 L 24.46875 -30.625 L 31.25 -30.625 C 31.25 -30.625 31.144531 -29.851562 30.9375 -28.3125 C 30.726562 -26.78125 30.625 -24.988281 30.625 -22.9375 L 30.625 10.625 C 30.625 12.675781 30.726562 14.46875 30.9375 16 C 31.144531 17.539062 31.25 18.3125 31.25 18.3125 Z M 23.78125 18.3125 "/></g></g></g></svg>